#!OML:ASF F:\VICON\USERDATA\INSTALL\rory3\rory3.ASF
:FULLY-SPECIFIED
:DEGREES
417
root 0.924772 17.908 34.4695 -1.19158 -1.06028 1.54835
lowerback 7.11811 -0.775942 -3.014
upperback 1.4757 -1.21928 1.34778
thorax -2.37237 -0.586956 3.19673
lowerneck -14.8745 -2.38231 -1.48841
upperneck 16.0463 -3.09922 0.948361
head 7.42056 -1.48426 0.223434
rclavicle -8.54774e-015 1.19271e-014
rhumerus -32.3427 -18.4042 -78.3339
rradius 28.7714
rwrist 3.67573
rhand -14.6657 21.1156
rfingers 7.12502
rthumb 11.4871 -8.54964
lclavicle -8.54774e-015 1.19271e-014
lhumerus -23.2704 -7.11239 80.9299
lradius 33.3172
lwrist 1.44947
lhand -25.0273 27.092
lfingers 7.12502
lthumb 1.48517 57.0666
rfemur -27.5348 2.63016 18.9924
rtibia 16.8763
rfoot -9.37026 -13.1048
rtoes -12.2714
lfemur 3.53966 -4.67036 -27.9438
ltibia 25.3297
lfoot -20.5082 3.8864
ltoes -4.85773
418
root 0.909956 17.889 34.6231 -1.09188 -0.916526 1.75169
lowerback 6.983 -0.845202 -3.27135
upperback 1.49327 -1.32673 1.33479
thorax -2.26485 -0.641493 3.33435
lowerneck -14.444 -2.404 -1.64789
upperneck 15.6116 -3.13992 1.19909
head 7.2109 -1.49356 0.334377
rclavicle 1.2921e-015 5.56597e-015
rhumerus -32.3107 -18.412 -78.2669
rradius 28.4947
rwrist 3.74111
rhand -14.5999 21.4294
rfingers 7.12502
rthumb 11.5506 -8.23228
lclavicle 1.2921e-015 5.56597e-015
lhumerus -22.8765 -7.14307 80.858
lradius 33.4511
lwrist 1.54507
lhand -26.0161 26.724
lfingers 7.12502
lthumb 0.530166 56.7031
rfemur -26.8067 4.13298 18.0954
rtibia 13.6559
rfoot -9.39228 -14.3865
rtoes -11.4093
lfemur 4.20139 -4.73677 -28.1353
ltibia 24.9814
lfoot -20.5235 4.03593
ltoes -8.50455
419
root 0.885846 17.8744 34.7795 -0.936189 -0.831551 1.78843
lowerback 6.9714 -0.900716 -3.4806
upperback 1.34781 -1.41533 1.38653
thorax -2.39496 -0.679216 3.51572
lowerneck -14.1449 -2.43651 -1.73966
upperneck 15.5427 -3.1897 1.31633
head 7.14078 -1.51417 0.386108
rclavicle -9.44227e-016 1.43125e-014
rhumerus -32.5723 -18.1472 -78.2449
rradius 28.5339
rwrist 3.56336
rhand -14.4221 21.1233
rfingers 7.12502
rthumb 11.7221 -8.52878
lclavicle -9.44227e-016 1.43125e-014
lhumerus -22.7663 -7.27929 80.7884
lradius 33.622
lwrist 1.60502
lhand -25.5613 26.0394
lfingers 7.12502
lthumb 0.969469 56.0169
rfemur -26.1569 5.93979 17.3115
rtibia 10.6495
rfoot -9.78103 -16.1028
rtoes -8.53509
lfemur 4.78208 -4.8932 -28.1173
ltibia 24.5973
lfoot -20.5004 3.95805
ltoes -9.28817
420
root 0.870245 17.8656 34.9461 -0.837547 -0.726037 1.98749
lowerback 7.00177 -0.981818 -3.78083
upperback 1.25892 -1.54688 1.40175
thorax -2.48394 -0.739087 3.71464
lowerneck -14.3868 -2.37696 -1.62897
upperneck 15.8282 -3.11243 1.20166
head 7.27094 -1.47886 0.334501
rclavicle 8.19987e-015 -2.38542e-015
rhumerus -32.8429 -17.8394 -78.2332
rradius 28.7984
rwrist 3.86695
rhand -14.2343 19.8521
rfingers 7.12502
rthumb 11.9032 -9.78956
lclavicle 8.19987e-015 -2.38542e-015
lhumerus -22.6166 -7.31682 80.712
lradius 33.7771
lwrist 1.56096
lhand -26.0543 25.7976
lfingers 7.12502
lthumb 0.4933 55.7768
rfemur -25.2356 5.77524 17.1544
rtibia 7.61249
rfoot -9.21363 -15.9343
rtoes -9.17596
lfemur 5.37742 -4.94549 -28.297
ltibia 24.3338
lfoot -20.6031 3.56684
ltoes -8.25601
421
root 0.860749 17.8543 35.1097 -0.783773 -0.589382 2.14102
lowerback 7.02669 -1.03964 -3.91792
upperback 1.26548 -1.63444 1.41593
thorax -2.47864 -0.781921 3.8149
lowerneck -14.8173 -2.40748 -1.60552
upperneck 16.1968 -3.14799 1.14633
head 7.4659 -1.496 0.301811
rclavicle 2.1916e-014 -5.96354e-015
rhumerus -32.9059 -18.068 -78.0577
rradius 28.8039
rwrist 4.5126
rhand -14.3244 19.0219
rfingers 7.12502
rthumb 11.8163 -10.6248
lclavicle 2.1916e-014 -5.96354e-015
lhumerus -22.2646 -7.30081 80.697
lradius 33.8383
lwrist 1.38906
lhand -26.9331 25.9168
lfingers 7.12502
lthumb -0.355469 55.8962
rfemur -23.8062 5.54158 16.9656
rtibia 3.98532
rfoot -8.03707 -15.8435
rtoes -11.4224
lfemur 5.92107 -5.02338 -28.424
ltibia 24.2244
lfoot -20.7456 2.93137
ltoes -6.95492
422
root 0.842232 17.8425 35.2614 -0.610017 -0.486257 2.21911
lowerback 6.92242 -1.10242 -4.06324
upperback 1.28811 -1.72368 1.44661
thorax -2.38325 -0.828159 3.93292
lowerneck -15.2376 -2.47292 -1.6507
upperneck 16.4722 -3.23542 1.20218
head 7.63314 -1.53178 0.311416
rclavicle -2.40032e-014 3.97569e-016
rhumerus -32.7069 -18.2781 -78.0868
rradius 28.3829
rwrist 4.30337
rhand -14.7928 19.3385
rfingers 7.12502
rthumb 11.3646 -10.3336
lclavicle -2.40032e-014 3.97569e-016
lhumerus -21.7608 -7.24691 80.6143
lradius 33.8363
lwrist 1.38371
lhand -26.4859 26.313
lfingers 7.12502
lthumb 0.0764673 56.2927
rfemur -22.2675 5.36345 16.9027
rtibia 6.36111e-014
rfoot -6.44996 -15.9774
rtoes -12.8373
lfemur 6.2549 -5.15592 -28.4171
ltibia 24.1319
lfoot -20.6829 2.37184
ltoes -6.3457
